<?xml version="1.0" encoding="utf-8"?>
<!-- Generator: Adobe Illustrator 15.1.0, SVG Export Plug-In . SVG Version: 6.00 Build 0)  -->
<!DOCTYPE svg PUBLIC "-//W3C//DTD SVG 1.1 Tiny//EN" "http://www.w3.org/Graphics/SVG/1.1/DTD/svg11-tiny.dtd">
<svg version="1.1" baseProfile="tiny" id="圖層_1"
	 xmlns="http://www.w3.org/2000/svg" xmlns:xlink="http://www.w3.org/1999/xlink" x="0px" y="0px" width="75px" height="75px"
	 viewBox="0 0 75 75" xml:space="preserve">
<linearGradient id="tag_1_" gradientUnits="userSpaceOnUse" x1="0.478" y1="37.0234" x2="74.5215" y2="37.0234">
	<stop  offset="0" style="stop-color:#44FF3F"/>
	<stop  offset="0.497" style="stop-color:#5FFFC8"/>
	<stop  offset="1" style="stop-color:#1FEAFF"/>
</linearGradient>
<path id="tag_2_" fill="url(#tag_1_)" d="M72.019,0H44.846c-1.377,0-3.3,0.798-4.274,1.769L1.206,41.137
	c-0.971,0.977-0.971,2.567,0,3.54l28.645,28.64c0.971,0.971,2.562,0.975,3.533,0L72.75,33.949c0.979-0.974,1.772-2.895,1.772-4.272
	V2.503C74.521,1.126,73.403,0,72.019,0z M62.621,15.867c-2.189,0-3.965-1.776-3.965-3.966s1.776-3.967,3.965-3.967
	c2.192,0,3.968,1.777,3.968,3.967S64.813,15.867,62.621,15.867z"/>
<text transform="matrix(1 0 0 1 16.3755 43.8174)" fill="#FFFFFF" font-family="'SegoeUI-SemiBold'" font-size="22.6801">S</text>
<text transform="matrix(1 0 0 1 28.7231 43.8174)" fill="#FFFFFF" font-family="'SegoeUI-SemiBold'" font-size="22.6801">V</text>
<text transform="matrix(1 0 0 1 42.8096 43.8174)" fill="#FFFFFF" font-family="'SegoeUI-SemiBold'" font-size="22.6801">G</text>
</svg>
