<?xml version="1.0" encoding="utf-8"?>
<!-- Generator: Adobe Illustrator 25.2.3, SVG Export Plug-In . SVG Version: 6.00 Build 0)  -->
<svg version="1.1" id="圖層_1" xmlns="http://www.w3.org/2000/svg" xmlns:xlink="http://www.w3.org/1999/xlink" x="0px" y="0px"
	 viewBox="0 0 173.8 33.4" style="enable-background:new 0 0 173.8 33.4;" xml:space="preserve">
<style type="text/css">
	.st0{fill:#00FFFF;}
	.st1{fill:none;stroke:#000000;stroke-width:0.5;stroke-miterlimit:10;}
	.st2{fill:#FFFFFF;}
</style>
<g>
	<rect x="0.7" y="23.8" class="st0" width="94" height="4"/>
	<path class="st2" d="M15.8,14.1v1.8c3.1,1.1,7.2,3,10.6,5.3l-3.1,4.2c-2.3-2.2-5.2-4.6-7.5-6.4v10.7h-5.4V14.1H0v-2.7h10.4v-11h5.4
		v4.7h9.7v2.6h-9.7v3.7h12.4v2.7H15.8z"/>
	<path class="st2" d="M51.5,10.6H60v2.3h-2.2v16.9h-4.6V12.9h-1.6v0.7c0,7.6-1.8,13.5-5.6,16.6L44.4,29c0.6-1,1.1-1.9,1.4-3L43.7,28
		c-1-1.8-2.3-3.9-3.3-5.2l0.8-0.9H37l2.6,1.1c-1.7,2.8-4.3,5.8-6.7,7.3l-1.4-1.5c1.3-1.9,2.5-4.2,3.6-7h-3v-2.4h1.8V7.3h-1.7V5h1.7
		V0.5h4.5V5h2.4V0.5h4.5V5h1.1v2.4h-1.1v12.1h1.3v2.4H43c1.2,0.7,2.4,1.6,3.3,2.5c0.6-2.5,0.7-5.4,0.7-9V2.5l3.4,0.8
		c2-0.7,4.4-1.9,6.3-3.3l3.5,3.6c-2.2,0.8-5.9,1.5-8.6,1.8V10.6z M40.8,7.3h-2.4v2.5h2.4V7.3z M40.8,11.9h-2.4v2.6h2.4V11.9z
		 M40.8,16.6h-2.4v2.9h2.4V16.6z"/>
	<path class="st2" d="M72.2,8.7V30h-5V15.7c-0.9,0.9-1.8,1.7-2.7,2.4l-1.3-1.6c2.8-3.7,5.4-10.4,6.7-16.4l5.2,1.3
		C74.4,4,73.4,6.5,72.2,8.7z M90.9,6.6v23.1h-5v-2.1h-6.7v2.2h-5V6.6h5.4C80,4.5,80.3,2,80.4,0.3l5.8,1c-0.9,1.7-2.2,3.8-3.6,5.3
		H90.9z M85.9,8.9h-6.7v6.4h6.7V8.9z M85.9,17.5h-6.7v7.8h6.7V17.5z"/>
	<path class="st2" d="M94.7,6.7h3.6c-0.6,2.8-1.5,5.8-2.4,7.3H94C94.4,12.1,94.6,9.2,94.7,6.7z"/>
	<path class="st2" d="M104.1,27.5c-1.6,0-3.3-0.4-4.6-1V24c1.4,0.9,2.7,1.4,4.2,1.5c1.9,0,2.5-1,2.5-2.1c0-1-1-1.7-2.5-2.3
		c-2.4-1-4-1.9-4-4.3c0-2.4,2-4.3,5.5-4.3c1.2,0,2.5,0.3,3.7,0.9v2.6c-1.5-1.1-2.7-1.5-3.6-1.5c-1.4,0-2.2,0.7-2.2,1.7
		c0,1.2,0.6,1.6,2.4,2.4c2.4,1.1,4.2,2.3,4.2,4.3C109.6,25.8,107.8,27.5,104.1,27.5z"/>
	<path class="st2" d="M126.5,27c-2.5,0.1-5.1,0-7.3-0.1V7.4c2.1-0.2,4.4-0.3,6.3-0.3c4.3,0.1,7.1,1.9,7.1,5c0,2.5-1.6,4.1-3.8,4.4
		v0.2c2.5,0.3,4.6,2.1,4.7,4.8C133.6,25.4,130.9,26.8,126.5,27z M125.2,9.5c-0.7,0-1.4,0-2.1,0.1v6.2h2.3c2.2,0,3.5-0.7,3.5-3.2
		C129,10.4,127.3,9.6,125.2,9.5z M125.5,17.8h-2.5v6.8c0.9,0.1,1.8,0.1,2.6,0c2.5-0.2,4.1-0.5,4.1-3.4
		C129.7,18.7,127.9,17.8,125.5,17.8z"/>
	<path class="st2" d="M137.6,26.7c-0.7-0.7-1-1.7-1-3.5V6.3h3.6v16.6c0,1.7,0.2,2.1,1.2,2.2c0.4,0,0.9-0.1,1.3-0.3v2.2
		C140.9,27.7,138.6,27.7,137.6,26.7z"/>
	<path class="st2" d="M150.8,27.5c-4.7,0-6.7-3.5-6.7-7.5c0-3.6,2.2-7.5,6.9-7.5c4.8,0,6.7,3.9,6.7,7.5
		C157.6,24.1,155.6,27.5,150.8,27.5z M150.7,14.6c-2.3,0-3.1,3.1-3.1,5.5c0,2.6,1.1,5.5,3.3,5.5c2.3,0,3.1-2.8,3.1-5.5
		C154,17.7,153,14.6,150.7,14.6z"/>
	<path class="st2" d="M161.2,31.8v-2.5c1.6,1.1,3.2,1.8,5,1.9c2.7,0,3.8-1.7,3.9-3.7c0.1-0.8,0.1-1.4,0.1-2.2c-0.6,1.2-2.3,2-3.9,2
		c-4.4,0-6.5-3-6.5-7.4c0-4.1,2.5-7.3,6.5-7.3c1.9,0,3.3,0.9,4.1,2.2V13h3.4v11.9c0.1,5.1-1.5,8.6-7.6,8.6
		C164.5,33.3,162.6,32.8,161.2,31.8z M170.3,20.3V19c-0.1-2.4-1.2-4.5-3.2-4.5c-2.3,0-3.6,2.3-3.6,5.4c0,2.8,1.2,5.2,3.4,5.2
		C169.1,25.1,170.2,23.2,170.3,20.3z"/>
</g>
</svg>
