<?xml version="1.0" encoding="UTF-8"?>
<svg width="249px" height="80px" viewBox="0 0 249 80" version="1.1" xmlns="http://www.w3.org/2000/svg" xmlns:xlink="http://www.w3.org/1999/xlink">
    <!-- Generator: Sketch 52 (66869) - http://www.bohemiancoding.com/sketch -->
    <title>casper_blog</title>
    <desc>Created with Sketch.</desc>
    <g id="casper_blog" stroke="none" stroke-width="1" fill="none" fill-rule="evenodd">
        <path d="M73.568,60.096 L75.344,58.536 C75.512,58.368 76.304,57.6 76.568,57.6 C76.808,57.6 76.928,57.768 76.808,58.152 L76.856,58.2 C79.184,56.184 80.696,54.024 80.696,53.232 C80.696,52.824 80.432,52.656 80.048,52.752 C79.616,52.872 76.88,52.968 71.504,59.256 C69.824,61.224 68.6,63.888 68.6,65.712 C68.6,67.416 69.416,68.424 71.144,68.424 C74.168,68.424 79.448,64.488 81.728,62.472 C81.8,63.696 81.416,64.032 80.504,64.896 C75.824,69.408 71.84,70.848 69.584,70.848 C66.92,70.848 65,69.192 65,66.432 C65,62.904 67.952,59.112 70.424,56.784 C72.464,54.84 77.504,51 80.36,51 C81.8,51 82.736,51.768 82.808,53.28 C82.976,56.52 76.784,62.664 73.76,63.12 C73.064,63.216 72.416,62.736 72.416,61.968 C72.416,61.248 73.064,60.528 73.568,60.096 Z M89.792,61.056 C84.08,62.808 83.384,64.272 83.384,65.448 C83.408,65.568 83.504,66 83.864,65.928 C84.344,65.832 85.088,65.904 89.84,61.104 L89.792,61.056 Z M88.496,64.296 L86.288,66.072 C85.832,66.432 84.296,67.68 83.744,67.68 C83.072,67.68 81.68,66.096 81.632,64.848 C81.536,61.848 87.776,58.776 90.56,58.704 C91.664,58.68 92.12,59.568 92.12,59.856 C92.12,60.144 91.496,60.384 91.28,60.456 C91.736,60.648 91.976,60.912 91.976,61.44 C91.976,62.208 89.888,63.888 89.888,65.016 C89.888,65.424 90.248,65.592 90.632,65.592 C91.64,65.592 93.008,64.368 94.04,63.672 L94.232,64.56 C93.2,65.736 89.984,68.304 88.808,68.304 C88.016,68.304 87.656,67.728 87.656,67.032 C87.656,66.264 88.232,64.992 88.544,64.344 L88.496,64.296 Z M97.712,60.84 L94.256,64.08 C95.144,64.128 95.672,64.872 96.128,65.496 C97.568,64.608 97.952,64.2 98.024,62.808 C97.952,62.304 97.856,61.656 97.712,60.84 Z M100.976,64.68 L102.416,63.576 L102.656,64.488 C101.192,65.952 98.576,68.136 96.656,68.04 C95.048,67.968 93.272,67.056 92.84,65.304 C92.696,65.448 92.528,65.616 92.312,65.616 C92.072,65.616 91.904,65.376 91.904,65.16 C91.904,64.848 92.288,64.512 92.48,64.32 L97.688,59.544 C97.736,58.752 98.192,57.984 99.056,57.984 C99.776,57.984 99.92,58.2 99.992,58.872 C100.088,59.784 100.448,60.6 100.448,61.656 C100.448,63.624 98.864,65.088 97.328,66.024 C98.864,66.288 99.8,65.568 100.976,64.68 Z M107.936,65.232 L109.64,63.216 C109.904,62.88 110.24,62.472 110.24,62.04 C110.24,61.872 110.168,61.704 109.976,61.704 C109.592,61.704 108.44,62.448 108.128,62.664 C107.24,63.312 106.568,64.128 105.92,64.992 C106.616,64.944 107.288,65.016 107.936,65.232 Z M104.288,67.296 L102.032,71.712 C101.84,72.072 101.408,72.72 100.952,72.72 C100.4,72.72 100.256,72.072 100.256,71.64 C100.232,70.44 100.76,69.24 101.744,67.848 C102.848,66.288 104.048,64.32 105.608,61.68 L105.56,61.632 L101.768,65.256 L101.672,64.128 L108.032,57.288 C108.608,56.664 109.04,55.968 109.952,55.968 C110.288,55.968 111.056,56.088 111.056,56.544 C111.056,57.072 109.808,58.224 109.424,58.632 C108.608,59.496 107.864,60.384 107.384,61.464 L107.432,61.512 C108.464,60.768 110.888,59.184 112.184,59.184 C112.832,59.184 113.192,59.688 113.192,60.312 C113.192,61.632 111.992,63.288 109.304,65.664 C111.368,65.808 111.848,65.424 114.416,63.216 L114.584,64.32 C112.808,66.048 110.648,67.776 108.056,67.776 C107.408,67.776 106.928,67.584 106.352,67.296 C105.992,67.368 105.632,67.44 105.248,67.44 C104.912,67.44 104.6,67.368 104.288,67.296 Z M123.08,63.216 L123.296,64.128 C121.832,65.832 119.192,68.088 116.816,68.088 C115.064,68.088 114.248,66.528 114.2,64.944 C114.104,61.8 117.584,58.584 120.704,58.608 C121.472,58.608 122.432,58.8 122.432,59.76 C122.432,60.936 121.256,62.712 116.648,64.224 L116.6,64.752 C116.528,65.664 117.32,65.976 118.088,65.976 C119.792,65.976 121.808,64.224 123.08,63.216 Z M116.792,63.048 C118.904,62.328 120.344,60.672 120.32,60.264 C120.32,60.096 120.2,59.952 120.032,60 C118.832,60.312 117.44,61.464 116.792,63.048 Z M127.136,61.944 L124.64,62.496 C123.8,63.816 122.792,64.44 121.76,65.472 L121.664,64.416 C122.288,63.912 122.792,63.312 123.248,62.664 C122.744,62.616 122.6,62.424 122.6,61.92 C122.6,60.192 125.048,58.464 125.624,58.464 C125.864,58.464 126.056,58.656 126.056,58.872 C126.056,59.112 125.984,59.328 125.888,59.544 C128.144,59.232 129.464,58.944 129.704,59.232 C130.064,59.688 130.232,60.072 130.28,60.504 C130.28,61.248 129.824,61.608 129.272,62.064 C128.576,62.664 127.4,63.84 127.4,64.8 C127.4,65.184 127.784,65.472 128.144,65.472 C129.176,65.472 130.688,63.912 131.48,63.312 L131.648,64.2 C130.736,65.232 127.976,67.896 126.608,67.896 C125.6,67.896 124.976,66.96 124.976,66.048 C124.976,64.416 126.224,63.144 127.184,61.992 L127.136,61.944 Z M147.752,59.904 C149.456,60.216 155.336,60.696 155.336,63 C155.336,64.368 152.384,67.608 145.928,67.968 C144.2,68.064 141.8,67.488 141.8,65.304 C141.8,64.536 141.68,64.416 144.464,60.744 C143.792,60.696 142.256,60.624 142.256,59.808 C142.256,58.776 145.616,58.728 146.336,58.512 C147.896,57 149.48,54.984 151.88,54.984 C151.712,55.392 151.544,55.704 149.552,58.032 C154.976,57.288 156.248,55.656 156.2,55.008 C156.176,54.48 155.504,53.64 152.72,53.832 C152.168,53.88 149.624,54.192 145.976,55.512 C146.12,55.584 146.312,55.68 146.312,55.872 C146.312,56.232 145.76,56.376 145.448,56.424 C143.96,56.664 143.504,56.88 142.112,57.336 C141.896,57.408 141.632,57.504 141.368,57.504 C140.96,57.504 140.768,57.264 140.768,56.856 C140.768,56.688 141.128,55.824 141.872,54.84 C142.376,54.168 143.072,53.256 143.888,52.944 C146.216,52.056 150.704,51.12 153.2,51.12 C157.328,51.12 158.312,52.752 158.312,54.048 C158.312,57.936 151.04,58.92 148.232,59.472 L147.752,59.904 Z M146.696,61.104 L145.352,62.568 C145.04,62.904 144.512,63.432 144.512,63.936 C144.512,64.968 146.408,65.256 147.176,65.256 C149.312,65.232 152.624,63.672 152.624,62.712 C152.624,61.464 147.68,61.104 146.696,61.104 Z M159.128,60.888 L159.176,60.936 C160.88,59.352 162.368,57.048 162.8,55.68 C161.624,56.256 160.256,58.416 159.128,60.888 Z M163.808,63.432 L164.144,64.152 C162.824,65.52 160.568,67.944 158.504,67.944 C156.752,67.944 156.368,66.24 156.368,64.824 C156.368,62.304 157.448,59.592 159.008,57.672 C161.12,55.056 163.4,52.824 164.168,52.824 C164.576,52.824 164.672,53.4 164.648,53.712 C164.48,55.992 163.856,58.104 158.648,63.144 C158.432,63.552 158.36,64.224 158.48,64.8 C158.696,65.352 159.032,65.832 159.68,65.832 C161,65.832 162.848,64.296 163.808,63.432 Z M173.264,63.096 L173.504,64.104 C172.424,65.472 171.368,66.048 169.616,66.048 C168.608,67.08 167.432,67.848 165.92,67.848 C164.672,67.848 163.52,66.6 163.424,64.416 C163.376,62.616 164.264,61.416 165.608,60.384 C166.904,59.328 168.632,58.68 170.096,58.608 C170.624,58.584 171.416,58.824 171.416,59.472 C171.416,59.832 171.128,59.976 170.864,60.12 C171.584,60.312 171.728,60.816 171.728,61.536 C171.728,62.592 171.248,63.432 170.792,64.368 C171.848,64.56 172.52,63.648 173.264,63.096 Z M168.848,61.224 C168.032,61.704 166.904,62.28 166.184,62.976 C165.656,63.504 165.2,64.44 165.2,65.184 C165.2,65.88 165.656,66.096 166.256,66.096 C167.048,66.096 167.552,65.64 168.104,65.136 C167.936,64.752 167.816,64.44 167.816,64.032 C167.816,62.784 168.944,61.272 168.848,61.224 Z M177.944,67.512 L179.624,64.224 L179.576,64.176 C178.712,65.136 176.192,67.32 174.872,67.32 C173.528,67.32 173.072,65.568 173.072,64.512 C173.072,61.368 178.304,58.824 180.152,58.656 C180.488,58.632 181.424,58.728 181.424,59.256 C181.424,59.688 180.944,60.024 180.632,60.24 L177.896,61.728 C176.384,62.544 174.608,63.216 174.824,64.968 C174.848,65.16 174.992,65.208 175.208,65.208 C175.88,65.28 177.344,64.704 178.256,63.72 L180.824,60.888 C181.064,60.624 181.352,60.216 181.736,60.216 C182.216,60.216 182.648,61.032 182.648,61.44 C182.648,61.8 182.312,62.352 182.144,62.664 L180.344,66.024 L180.392,66.072 L184.04,63.456 L184.16,64.464 L179.096,68.256 C176.576,72.264 174.464,73.8 173.528,73.8 C173.192,73.8 172.976,73.536 172.976,73.224 C172.976,71.496 176.624,68.472 177.944,67.512 Z" id="Casper-Blog" fill="#FFFFFF"></path>
        <path d="M102,22.6850649 L83.6685649,22.6850649 L83.6685649,25.5551948 C89.1047836,27.6233766 93.6560364,29.8181818 98.2494305,33.1948052 L95.4681093,36.9935065 C92.8553531,34.1233766 88.2198178,30.3246753 83.6685649,27.3701299 L83.6685649,44 L79.7072893,44 L79.7072893,22.6850649 L65,22.6850649 L65,20.7857143 L79.7072893,20.7857143 L79.7072893,5 L83.6685649,5 L83.6685649,12.4285714 L98.3758542,12.4285714 L98.3758542,14.3279221 L83.6685649,14.3279221 L83.6685649,20.7857143 L102,20.7857143 L102,22.6850649 Z M144,19.5649839 L144,21.4983888 L139.295316,21.4983888 L139.295316,44.7422127 L135.617108,44.7422127 L135.617108,21.4983888 L131.083503,21.4983888 C131.040733,32.6262084 129.458248,39.2427497 124.197556,45 L123,44.0118153 C127.020367,38.2116004 127.319756,32.1965628 127.319756,23.7755102 L127.319756,8.65198711 L130.912424,9.76906552 C134.590631,8.48012889 137.156823,6.89044039 139.594705,5 L143.144603,8.13641246 C140.578411,9.42534909 135.574338,10.7572503 131.083503,11.358754 L131.083503,19.5649839 L144,19.5649839 Z M127,31.0821918 L127,33 L107,33 L107,31.0821918 L111.076433,31.0821918 L111.076433,13.4383562 L107.467091,13.4383562 L107.467091,11.5205479 L111.076433,11.5205479 L111.076433,5 L114.643312,5 L114.643312,11.5205479 L119.696391,11.5205479 L119.696391,5 L123.178344,5 L123.178344,11.5205479 L126.915074,11.5205479 L126.915074,13.4383562 L123.178344,13.4383562 L123.178344,31.0821918 L127,31.0821918 Z M119,18 L119,14 L114,14 L114,18 L119,18 Z M119,25 L119,20 L114,20 L114,25 L119,25 Z M119,31 L119,26 L114,26 L114,31 L119,31 Z M106,43.796875 C107.572052,42.2070312 110.454148,38.46875 112.113537,34 L116,35.5898438 C113.641921,39.7578125 109.318777,43.5390625 107.004367,45 L106,43.796875 Z M118.947059,34 C121.170588,35.4065934 123.147059,37.1208791 125,39.2747253 L122.241176,42 C120.841176,39.4945055 119.276471,37.032967 118,35.1868132 L118.947059,34 Z M157.787234,5 L162,6.25134844 C161.06383,9.70334412 159.829787,12.8964401 158.382979,15.7874865 L158.382979,45 L154.723404,45 L154.723404,21.7421791 C152.978723,24.0291262 151.06383,26.0571737 148.978723,27.6968716 L148,26.5318231 C152.765957,20.9223301 155.744681,14.1477886 157.787234,5 Z M172.366599,13.6807818 L184,13.6807818 L184,44 L180.065173,44 L180.065173,41.2899023 L166.763747,41.2899023 L166.763747,43.9576547 L163,43.9576547 L163,13.6807818 L170.185336,13.6807818 C170.997963,10.6742671 171.596741,7.32899023 171.89613,5 L176.814664,6.31270358 C175.745418,8.38762215 173.949084,11.3094463 172.366599,13.6807818 Z M180,27 L180,16 L167,16 L167,27 L180,27 Z M180,40 L180,28 L167,28 L167,40 L180,40 Z" id="卡斯伯" fill="#FFFFFF"></path>
    </g>
</svg>