<?xml version="1.0" encoding="utf-8"?>
<!-- Generator: Adobe Illustrator 16.0.0, SVG Export Plug-In . SVG Version: 6.00 Build 0)  -->
<svg version="1.2" baseProfile="tiny" id="Layer_1" xmlns="http://www.w3.org/2000/svg" xmlns:xlink="http://www.w3.org/1999/xlink"
	 x="0px" y="0px" width="447px" height="179px" viewBox="0 0 447 179" xml:space="preserve">
<path fill-rule="evenodd" fill="#6D6E70" d="M413.418,56.724h2.49c0.017,0.032,0.027,0.063,0.036,0.093
	c0.406,0.886,0.811,1.769,1.188,2.662c0.404,1.001,0.768,2.017,1.207,3.006c0.02,0.03,0.033,0.062,0.041,0.094
	c0.319-0.729,0.822-1.903,1.145-2.631c0.301-0.674,0.601-1.361,0.901-2.037c0.117-0.261,0.139-0.314,0.139-0.407
	c0-0.228-0.231-0.228-0.439-0.228l-0.915,0.042l0.915-0.593h3.338l-0.238,0.229c-0.243,0.218-0.368,0.373-0.368,0.801
	c0,0.146,0.014,0.29,0.032,0.446c0.063,0.656,0.117,1.31,0.167,1.966c0.076,0.864,0.155,1.726,0.313,2.579
	c0.134,0.696,0.281,0.946,0.781,1.32c-0.555,0.104-0.926,0.156-1.482,0.156c-0.225,0-0.617,0-0.98-0.269
	c-0.432-0.333-0.489-0.864-0.562-1.809c-0.063-0.647-0.126-1.29-0.178-1.937c-0.041-0.612-0.062-1.227-0.123-1.84l-0.014-0.124
	l-0.062,0.134c-0.363,0.79-0.694,1.601-1.049,2.391c-0.822,1.893-0.88,2.017-1.046,2.527l0.112,0.312
	c-0.301,0.074-1.489,0.467-1.926,0.634c-0.336-0.927-1.505-3.939-2.438-5.998c-0.096,0.874-0.181,1.747-0.26,2.619
	c-0.027,0.292-0.202,2.236-0.202,2.413c0,0.227,0.052,0.29,0.462,0.332l0.909,0.134l-0.53,0.323h-1.933l0.27-0.323
	c0.055-0.072,0.104-0.134,0.134-0.227c0.063-0.166,0.096-0.459,0.137-0.874c0.074-0.635,0.161-1.258,0.232-1.892
	c0.041-0.396,0.232-2.328,0.286-2.776c0.014-0.105,0.022-0.218,0.022-0.323c0-0.269-0.102-0.405-0.415-0.405
	c-0.15,0-0.814,0.019-0.967,0.019L413.418,56.724L413.418,56.724z"/>
<path fill-rule="evenodd" fill="#6D6E70" d="M412.959,56.724l-0.45,1.06l-0.468,0.209c0.027-0.104,0.112-0.489,0.112-0.528
	c0-0.24-0.278-0.251-0.57-0.251l-1.447,0.011c-0.126,4.055-0.126,4.407-0.126,4.957c0,0.293,0,0.531,0.021,0.884
	c0.03,0.449,0.175,0.542,0.655,0.572l0.883,0.094l-0.678,0.333h-3.463l0.232-0.333c0.227-0.343,0.262-0.394,0.262-0.624
	c0.003-0.23,0-1.3,0-1.539c0-0.437,0-0.882,0.003-1.32c0.036-0.894,0.09-1.789,0.09-2.673c0-0.146-0.014-0.312-0.014-0.352h-1.264
	c-0.637,0.021-0.65,0.04-0.991,0.56l-0.552,0.209l0.552-1.269H412.959L412.959,56.724z"/>
<path fill-rule="evenodd" fill="#EE3E34" d="M399.501,116.067c-1.461,0.799-2.928,1.729-4.386,2.396
	c-4.397,1.997-8.92,2.528-12.912,2.528c-4.258,0-10.916-0.267-17.699-5.189c-9.448-6.655-13.57-18.099-13.57-28.079
	c0-20.626,16.766-30.74,30.475-30.74c4.787,0,9.714,1.197,13.707,3.726c6.646,4.392,8.379,10.114,9.307,13.176l-31.27,12.641
	l-10.246,0.801c3.329,16.899,14.769,26.745,27.413,26.745c6.786,0,11.713-2.394,16.238-4.657L399.501,116.067L399.501,116.067z
	 M386.993,76.413c2.526-0.934,3.858-1.729,3.858-3.595c0-5.323-5.983-11.444-13.177-11.444c-5.325,0-15.301,4.125-15.301,18.497
	c0,2.264,0.265,4.657,0.398,7.053L386.993,76.413L386.993,76.413z"/>
<path fill-rule="evenodd" fill="#2FB357" d="M347.734,118.995h-23.553c3.06-3.99,3.594-4.392,3.594-7.05V90.251
	c0-10.379,0.134-25.151,0.529-38.99c0.134-6.786,0.668-15.303,0.798-21.425h-10.376l9.982-4.791h19.025
	c-4.122,2.396-5.455,3.195-5.985,7.854c-1.062,10.245-1.197,26.479-1.197,45.375v30.742c0,5.19,0.929,5.989,5.321,6.389
	c2.266,0.267,4.525,0.398,6.786,0.664L347.734,118.995L347.734,118.995z"/>
<path fill-rule="evenodd" fill="#0075BE" d="M304.087,63.504c3.062,2.528,9.449,7.851,9.449,17.965
	c0,9.847-5.591,14.504-11.175,18.896c-1.732,1.729-3.729,3.595-3.729,6.521c0,2.927,1.996,4.524,3.458,5.72l4.792,3.728
	c5.858,4.921,11.176,9.449,11.176,18.631c0,12.508-12.109,25.15-34.998,25.15c-19.296,0-28.609-9.183-28.609-19.031
	c0-4.792,2.396-11.577,10.247-16.236c8.25-5.056,19.43-5.72,25.415-6.119c-1.862-2.396-3.988-4.924-3.988-9.049
	c0-2.263,0.663-3.593,1.332-5.19c-1.467,0.132-2.93,0.267-4.262,0.267c-14.105,0-22.09-10.514-22.09-20.896
	c0-6.119,2.794-12.907,8.519-17.83c7.586-6.255,16.63-7.318,23.817-7.318h27.411l-8.516,4.79H304.087L304.087,63.504z
	 M294.64,122.588c-1.063-0.134-1.732-0.134-3.06-0.134c-1.198,0-8.385,0.267-13.975,2.131c-2.926,1.066-11.445,4.257-11.445,13.708
	c0,9.446,9.184,16.231,23.423,16.231c12.778,0,19.562-6.12,19.562-14.368C309.145,133.367,304.756,129.775,294.64,122.588
	L294.64,122.588z M298.502,97.306c3.056-3.062,3.323-7.322,3.323-9.715c0-9.583-5.718-24.487-16.769-24.487
	c-3.459,0-7.183,1.73-9.313,4.392c-2.266,2.794-2.93,6.389-2.93,9.849c0,8.914,5.19,23.687,16.636,23.687
	C292.773,101.031,296.372,99.432,298.502,97.306L298.502,97.306z"/>
<path fill-rule="evenodd" fill="#FFDE1B" d="M221.582,120.724c-21.159,0-32.47-16.499-32.47-31.402
	c0-17.434,14.24-32.339,34.464-32.339c19.565,0,31.809,15.304,31.809,31.406C255.385,104.091,243.271,120.724,221.582,120.724
	L221.582,120.724z M238.216,109.948c3.194-4.26,3.992-9.582,3.992-14.773c0-11.712-5.59-34.067-22.092-34.067
	c-4.389,0-8.781,1.731-11.976,4.525c-5.188,4.657-6.12,10.513-6.12,16.235c0,13.174,6.521,34.865,22.619,34.865
	C229.831,116.733,235.156,114.206,238.216,109.948L238.216,109.948z"/>
<path fill-rule="evenodd" fill="#EE3E34" d="M150.787,120.724c-21.161,0-32.472-16.499-32.472-31.402
	c0-17.434,14.239-32.339,34.468-32.339c19.56,0,31.802,15.304,31.802,31.406C184.585,104.091,172.479,120.724,150.787,120.724
	L150.787,120.724z M167.419,109.948c3.195-4.26,3.993-9.582,3.993-14.773c0-11.712-5.588-34.067-22.088-34.067
	c-4.392,0-8.784,1.731-11.979,4.525c-5.188,4.657-6.121,10.513-6.121,16.235c0,13.174,6.522,34.865,22.625,34.865
	C159.038,116.733,164.359,114.206,167.419,109.948L167.419,109.948z"/>
<path fill-rule="evenodd" fill="#0075BE" d="M109.855,116.081l-17.84,4.116c-7.236,1.124-13.724,2.122-20.585,2.122
	c-34.434,0-47.533-25.327-47.533-45.163c0-24.204,18.59-46.66,50.402-46.66c6.737,0,13.226,1,19.088,2.62
	c9.356,2.621,13.724,5.864,16.468,7.738l-10.354,9.854l-4.366,0.998l3.118-4.992c-4.242-4.115-11.979-11.725-26.696-11.725
	c-19.715,0-34.561,14.97-34.561,36.804c0,23.453,16.969,45.535,44.164,45.535c7.987,0,12.102-1.622,15.844-3.118V94.123
	l-18.837,0.998l9.98-5.363h26.449l-3.242,3.12c-0.874,0.747-1.001,0.996-1.25,1.994c-0.125,1.124-0.25,4.742-0.25,5.99V116.081
	L109.855,116.081z"/>
</svg>
